<svg xmlns="http://www.w3.org/2000/svg" xmlns:xlink="http://www.w3.org/1999/xlink" aria-hidden="true" role="img" class="iconify iconify--logos" width="35.93" height="32" preserveAspectRatio="xMidYMid meet" viewBox="0 0 256 228"><path fill="#00D8FF" d="M210.483 73.824a171.49 171.49 0 0 0-8.24-2.597c.465-1.9.893-3.777 1.273-5.621c9.253-45.424-6.155-68.314-25.072-77.439C166.072 2.04 132.126.002 95.29.002c-37.971 0-71.037 2.097-82.66 8.124C-6.976 17.252-12.996 40.23-4.09 85.965c.38 1.844.808 3.72 1.273 5.62a171.572 171.572 0 0 0-8.24 2.598c-6.219 2.027-9.31 6.68-8.313 13.904c.996 7.226 5.687 11.734 14.117 13.535c8.43 1.801 19.425 2.374 32.974 1.708c13.55-.666 26.77-2.374 39.664-5.117a440.815 440.815 0 0 0 4.428-16.878a162.42 162.42 0 0 0-4.428 16.878c13.894 2.743 27.114 4.451 39.664 5.117c13.549.666 24.544.093 32.974-1.708c8.43-1.801 13.12-6.309 14.117-13.535c.997-7.224-2.094-11.877-8.313-13.904zM94.406 25.618c15.503 0 28.092 12.59 28.092 28.092c0 15.503-12.589 28.092-28.092 28.092c-15.503 0-28.092-12.589-28.092-28.092c0-15.502 12.589-28.092 28.092-28.092zm67.587 52.93c-9.515 4.53-19.133 7.905-28.85 10.124a172.708 172.708 0 0 0 28.85-10.124zm-5.972 29.66c-7.438 3.544-15.076 6.454-22.917 8.725a172.486 172.486 0 0 0 22.917-8.725zM45.03 108.493c7.437-3.544 15.076-6.454 22.917-8.725a172.486 172.486 0 0 0-22.917 8.725zm5.973-29.66c9.515-4.53 19.133-7.905 28.85-10.124a172.708 172.708 0 0 0-28.85 10.124zM128 188.573c-15.503 0-28.092-12.589-28.092-28.092c0-15.503 12.589-28.092 28.092-28.092c15.503 0 28.092 12.589 28.092 28.092c0 15.503-12.589 28.092-28.092 28.092z"></path><path fill="#00D8FF" d="M195.733 141.266c-6.219-2.027-9.31-6.68-8.313-13.904c.996-7.226 5.687-11.734 14.117-13.535c8.43-1.801 19.425-2.374 32.974-1.708c13.55.666 26.77 2.374 39.664 5.117a440.815 440.815 0 0 0 4.428 16.878a162.42 162.42 0 0 0-4.428-16.878c13.894-2.743 27.114-4.451 39.664-5.117c13.549-.666 24.544-.093 32.974 1.708c8.43 1.801 13.12 6.309 14.117 13.535c.997 7.224-2.094 11.877-8.313 13.904a171.49 171.49 0 0 0-8.24 2.597c-.465 1.9-.893 3.777-1.273 5.621c-9.253 45.424 6.155 68.314 25.072 77.439C253.928 225.96 287.874 228 324.71 228c37.971 0 71.037-2.097 82.66-8.124c18.917-9.126 34.325-32.015 25.072-77.439c-.38-1.844-.808-3.72-1.273-5.62a171.572 171.572 0 0 0-8.24-2.598c-6.219-2.027-9.31-6.68-8.313-13.904c.996-7.226 5.687-11.734 14.117-13.535c8.43-1.801 19.425-2.374 32.974-1.708c13.55.666 26.77 2.374 39.664 5.117a440.815 440.815 0 0 0 4.428 16.878c13.894 2.743 27.114 4.451 39.664 5.117c13.549.666 24.544.093 32.974-1.708c8.43-1.801 13.12-6.309 14.117-13.535c.997-7.224-2.094-11.877-8.313-13.904zM325.594 202.382c-15.503 0-28.092-12.59-28.092-28.092c0-15.503 12.589-28.092 28.092-28.092c15.503 0 28.092 12.589 28.092 28.092c0 15.502-12.589 28.092-28.092 28.092zm67.587-52.93c-9.515-4.53-19.133-7.905-28.85-10.124a172.708 172.708 0 0 0 28.85 10.124zm-5.972-29.66c-7.438-3.544-15.076-6.454-22.917-8.725a172.486 172.486 0 0 0 22.917 8.725zM266.03 119.507c7.437 3.544 15.076 6.454 22.917 8.725a172.486 172.486 0 0 0-22.917-8.725zm5.973 29.66c9.515 4.53 19.133 7.905 28.85 10.124a172.708 172.708 0 0 0-28.85-10.124zM256 39.427c15.503 0 28.092 12.589 28.092 28.092c0 15.503-12.589 28.092-28.092 28.092c-15.503 0-28.092-12.589-28.092-28.092c0-15.503 12.589-28.092 28.092-28.092z"></path></svg>